<mxfile host="app.diagrams.net" modified="2021-12-23T03:34:34.566Z" agent="5.0 (Windows NT 6.3; WOW64) AppleWebKit/537.36 (KHTML, like Gecko) Chrome/96.0.4664.110 Safari/537.36" etag="ocODJGFJWXmxmjycvp2U" version="16.0.3" type="github">
  <diagram id="ehV2ShFkaHwZCi_k0OKw" name="Page-1">
    <mxGraphModel dx="2713" dy="691" grid="1" gridSize="10" guides="1" tooltips="1" connect="1" arrows="1" fold="1" page="1" pageScale="1" pageWidth="827" pageHeight="1169" math="0" shadow="0">
      <root>
        <mxCell id="0" />
        <mxCell id="1" parent="0" />
        <mxCell id="9fkG32ilgxtSy8pQhl3n-3" value="" style="edgeStyle=orthogonalEdgeStyle;rounded=0;orthogonalLoop=1;jettySize=auto;html=1;" edge="1" parent="1" source="9fkG32ilgxtSy8pQhl3n-1" target="9fkG32ilgxtSy8pQhl3n-2">
          <mxGeometry relative="1" as="geometry" />
        </mxCell>
        <mxCell id="9fkG32ilgxtSy8pQhl3n-16" value="" style="edgeStyle=orthogonalEdgeStyle;rounded=0;orthogonalLoop=1;jettySize=auto;html=1;" edge="1" parent="1" source="9fkG32ilgxtSy8pQhl3n-1" target="9fkG32ilgxtSy8pQhl3n-15">
          <mxGeometry relative="1" as="geometry" />
        </mxCell>
        <mxCell id="9fkG32ilgxtSy8pQhl3n-18" value="" style="edgeStyle=orthogonalEdgeStyle;rounded=0;orthogonalLoop=1;jettySize=auto;html=1;" edge="1" parent="1" source="9fkG32ilgxtSy8pQhl3n-1" target="9fkG32ilgxtSy8pQhl3n-17">
          <mxGeometry relative="1" as="geometry" />
        </mxCell>
        <mxCell id="9fkG32ilgxtSy8pQhl3n-26" value="" style="edgeStyle=orthogonalEdgeStyle;rounded=0;orthogonalLoop=1;jettySize=auto;html=1;" edge="1" parent="1" source="9fkG32ilgxtSy8pQhl3n-1" target="9fkG32ilgxtSy8pQhl3n-25">
          <mxGeometry relative="1" as="geometry" />
        </mxCell>
        <mxCell id="9fkG32ilgxtSy8pQhl3n-33" value="" style="edgeStyle=orthogonalEdgeStyle;rounded=0;orthogonalLoop=1;jettySize=auto;html=1;" edge="1" parent="1" source="9fkG32ilgxtSy8pQhl3n-1" target="9fkG32ilgxtSy8pQhl3n-32">
          <mxGeometry relative="1" as="geometry" />
        </mxCell>
        <mxCell id="9fkG32ilgxtSy8pQhl3n-1" value="Data Diri" style="rounded=0;whiteSpace=wrap;html=1;" vertex="1" parent="1">
          <mxGeometry x="140" y="200" width="130" height="60" as="geometry" />
        </mxCell>
        <mxCell id="9fkG32ilgxtSy8pQhl3n-5" value="" style="edgeStyle=orthogonalEdgeStyle;rounded=0;orthogonalLoop=1;jettySize=auto;html=1;" edge="1" parent="1" source="9fkG32ilgxtSy8pQhl3n-2" target="9fkG32ilgxtSy8pQhl3n-4">
          <mxGeometry relative="1" as="geometry" />
        </mxCell>
        <mxCell id="9fkG32ilgxtSy8pQhl3n-7" value="" style="edgeStyle=orthogonalEdgeStyle;rounded=0;orthogonalLoop=1;jettySize=auto;html=1;" edge="1" parent="1" source="9fkG32ilgxtSy8pQhl3n-2" target="9fkG32ilgxtSy8pQhl3n-6">
          <mxGeometry relative="1" as="geometry" />
        </mxCell>
        <mxCell id="9fkG32ilgxtSy8pQhl3n-2" value="Pengalaman" style="rhombus;whiteSpace=wrap;html=1;rounded=0;" vertex="1" parent="1">
          <mxGeometry x="585" y="175" width="115" height="110" as="geometry" />
        </mxCell>
        <mxCell id="9fkG32ilgxtSy8pQhl3n-20" value="" style="edgeStyle=orthogonalEdgeStyle;rounded=0;orthogonalLoop=1;jettySize=auto;html=1;" edge="1" parent="1" source="9fkG32ilgxtSy8pQhl3n-4" target="9fkG32ilgxtSy8pQhl3n-19">
          <mxGeometry relative="1" as="geometry" />
        </mxCell>
        <mxCell id="9fkG32ilgxtSy8pQhl3n-22" value="" style="edgeStyle=orthogonalEdgeStyle;rounded=0;orthogonalLoop=1;jettySize=auto;html=1;" edge="1" parent="1" source="9fkG32ilgxtSy8pQhl3n-4" target="9fkG32ilgxtSy8pQhl3n-21">
          <mxGeometry relative="1" as="geometry" />
        </mxCell>
        <mxCell id="9fkG32ilgxtSy8pQhl3n-24" value="" style="edgeStyle=orthogonalEdgeStyle;rounded=0;orthogonalLoop=1;jettySize=auto;html=1;" edge="1" parent="1" source="9fkG32ilgxtSy8pQhl3n-4" target="9fkG32ilgxtSy8pQhl3n-23">
          <mxGeometry relative="1" as="geometry" />
        </mxCell>
        <mxCell id="9fkG32ilgxtSy8pQhl3n-4" value="Kerja" style="whiteSpace=wrap;html=1;rounded=0;" vertex="1" parent="1">
          <mxGeometry x="960" y="200" width="120" height="60" as="geometry" />
        </mxCell>
        <mxCell id="9fkG32ilgxtSy8pQhl3n-9" value="" style="edgeStyle=orthogonalEdgeStyle;rounded=0;orthogonalLoop=1;jettySize=auto;html=1;" edge="1" parent="1" source="9fkG32ilgxtSy8pQhl3n-6" target="9fkG32ilgxtSy8pQhl3n-8">
          <mxGeometry relative="1" as="geometry" />
        </mxCell>
        <mxCell id="9fkG32ilgxtSy8pQhl3n-11" value="" style="edgeStyle=orthogonalEdgeStyle;rounded=0;orthogonalLoop=1;jettySize=auto;html=1;" edge="1" parent="1" source="9fkG32ilgxtSy8pQhl3n-6" target="9fkG32ilgxtSy8pQhl3n-10">
          <mxGeometry relative="1" as="geometry" />
        </mxCell>
        <mxCell id="9fkG32ilgxtSy8pQhl3n-13" value="" style="edgeStyle=orthogonalEdgeStyle;rounded=0;orthogonalLoop=1;jettySize=auto;html=1;" edge="1" parent="1" source="9fkG32ilgxtSy8pQhl3n-6" target="9fkG32ilgxtSy8pQhl3n-27">
          <mxGeometry relative="1" as="geometry">
            <mxPoint x="485" y="390" as="targetPoint" />
          </mxGeometry>
        </mxCell>
        <mxCell id="9fkG32ilgxtSy8pQhl3n-6" value="Organisasi" style="whiteSpace=wrap;html=1;rounded=0;" vertex="1" parent="1">
          <mxGeometry x="582.5" y="360" width="120" height="60" as="geometry" />
        </mxCell>
        <mxCell id="9fkG32ilgxtSy8pQhl3n-8" value="C" style="ellipse;whiteSpace=wrap;html=1;rounded=0;" vertex="1" parent="1">
          <mxGeometry x="765" y="360" width="95" height="60" as="geometry" />
        </mxCell>
        <mxCell id="9fkG32ilgxtSy8pQhl3n-10" value="B" style="ellipse;whiteSpace=wrap;html=1;rounded=0;" vertex="1" parent="1">
          <mxGeometry x="582.5" y="500" width="120" height="60" as="geometry" />
        </mxCell>
        <mxCell id="9fkG32ilgxtSy8pQhl3n-15" value="Skill" style="ellipse;whiteSpace=wrap;html=1;rounded=0;" vertex="1" parent="1">
          <mxGeometry x="20" y="350" width="120" height="60" as="geometry" />
        </mxCell>
        <mxCell id="9fkG32ilgxtSy8pQhl3n-17" value="Tanggal Lahir" style="ellipse;whiteSpace=wrap;html=1;rounded=0;" vertex="1" parent="1">
          <mxGeometry x="145" y="60" width="120" height="60" as="geometry" />
        </mxCell>
        <mxCell id="9fkG32ilgxtSy8pQhl3n-19" value="A" style="ellipse;whiteSpace=wrap;html=1;rounded=0;" vertex="1" parent="1">
          <mxGeometry x="960" y="90" width="120" height="60" as="geometry" />
        </mxCell>
        <mxCell id="9fkG32ilgxtSy8pQhl3n-21" value="B" style="ellipse;whiteSpace=wrap;html=1;rounded=0;" vertex="1" parent="1">
          <mxGeometry x="1110" y="200" width="120" height="60" as="geometry" />
        </mxCell>
        <mxCell id="9fkG32ilgxtSy8pQhl3n-23" value="C" style="ellipse;whiteSpace=wrap;html=1;rounded=0;" vertex="1" parent="1">
          <mxGeometry x="960" y="320" width="120" height="60" as="geometry" />
        </mxCell>
        <mxCell id="9fkG32ilgxtSy8pQhl3n-25" value="Contact&lt;br&gt;Email&lt;br&gt;Phone" style="ellipse;whiteSpace=wrap;html=1;rounded=0;" vertex="1" parent="1">
          <mxGeometry x="-65" y="200" width="120" height="60" as="geometry" />
        </mxCell>
        <mxCell id="9fkG32ilgxtSy8pQhl3n-27" value="A" style="ellipse;whiteSpace=wrap;html=1;rounded=0;" vertex="1" parent="1">
          <mxGeometry x="414" y="360" width="120" height="60" as="geometry" />
        </mxCell>
        <mxCell id="9fkG32ilgxtSy8pQhl3n-31" value="" style="edgeStyle=orthogonalEdgeStyle;rounded=0;orthogonalLoop=1;jettySize=auto;html=1;exitX=0.5;exitY=1;exitDx=0;exitDy=0;" edge="1" parent="1" source="9fkG32ilgxtSy8pQhl3n-32" target="9fkG32ilgxtSy8pQhl3n-34">
          <mxGeometry relative="1" as="geometry">
            <mxPoint x="260" y="410" as="sourcePoint" />
            <mxPoint x="160" y="470" as="targetPoint" />
          </mxGeometry>
        </mxCell>
        <mxCell id="9fkG32ilgxtSy8pQhl3n-36" value="" style="edgeStyle=orthogonalEdgeStyle;rounded=0;orthogonalLoop=1;jettySize=auto;html=1;" edge="1" parent="1" source="9fkG32ilgxtSy8pQhl3n-32" target="9fkG32ilgxtSy8pQhl3n-35">
          <mxGeometry relative="1" as="geometry" />
        </mxCell>
        <mxCell id="9fkG32ilgxtSy8pQhl3n-32" value="Pendidikan" style="rhombus;whiteSpace=wrap;html=1;rounded=0;" vertex="1" parent="1">
          <mxGeometry x="220" y="350" width="80" height="80" as="geometry" />
        </mxCell>
        <mxCell id="9fkG32ilgxtSy8pQhl3n-38" value="" style="edgeStyle=orthogonalEdgeStyle;rounded=0;orthogonalLoop=1;jettySize=auto;html=1;" edge="1" parent="1" source="9fkG32ilgxtSy8pQhl3n-34" target="9fkG32ilgxtSy8pQhl3n-37">
          <mxGeometry relative="1" as="geometry" />
        </mxCell>
        <mxCell id="9fkG32ilgxtSy8pQhl3n-42" value="" style="edgeStyle=orthogonalEdgeStyle;rounded=0;orthogonalLoop=1;jettySize=auto;html=1;" edge="1" parent="1" source="9fkG32ilgxtSy8pQhl3n-34" target="9fkG32ilgxtSy8pQhl3n-41">
          <mxGeometry relative="1" as="geometry" />
        </mxCell>
        <mxCell id="9fkG32ilgxtSy8pQhl3n-34" value="Formal" style="whiteSpace=wrap;html=1;rounded=0;" vertex="1" parent="1">
          <mxGeometry x="100" y="470" width="120" height="60" as="geometry" />
        </mxCell>
        <mxCell id="9fkG32ilgxtSy8pQhl3n-40" value="" style="edgeStyle=orthogonalEdgeStyle;rounded=0;orthogonalLoop=1;jettySize=auto;html=1;" edge="1" parent="1" source="9fkG32ilgxtSy8pQhl3n-35" target="9fkG32ilgxtSy8pQhl3n-39">
          <mxGeometry relative="1" as="geometry" />
        </mxCell>
        <mxCell id="9fkG32ilgxtSy8pQhl3n-44" value="" style="edgeStyle=orthogonalEdgeStyle;rounded=0;orthogonalLoop=1;jettySize=auto;html=1;" edge="1" parent="1" source="9fkG32ilgxtSy8pQhl3n-35" target="9fkG32ilgxtSy8pQhl3n-43">
          <mxGeometry relative="1" as="geometry" />
        </mxCell>
        <mxCell id="9fkG32ilgxtSy8pQhl3n-35" value="Non Formal" style="whiteSpace=wrap;html=1;rounded=0;" vertex="1" parent="1">
          <mxGeometry x="280" y="470" width="120" height="60" as="geometry" />
        </mxCell>
        <mxCell id="9fkG32ilgxtSy8pQhl3n-37" value="B" style="ellipse;whiteSpace=wrap;html=1;rounded=0;" vertex="1" parent="1">
          <mxGeometry x="100" y="585" width="120" height="60" as="geometry" />
        </mxCell>
        <mxCell id="9fkG32ilgxtSy8pQhl3n-39" value="A" style="ellipse;whiteSpace=wrap;html=1;rounded=0;" vertex="1" parent="1">
          <mxGeometry x="280" y="590" width="120" height="60" as="geometry" />
        </mxCell>
        <mxCell id="9fkG32ilgxtSy8pQhl3n-41" value="A" style="ellipse;whiteSpace=wrap;html=1;rounded=0;" vertex="1" parent="1">
          <mxGeometry x="-60" y="470" width="120" height="60" as="geometry" />
        </mxCell>
        <mxCell id="9fkG32ilgxtSy8pQhl3n-43" value="B" style="ellipse;whiteSpace=wrap;html=1;rounded=0;" vertex="1" parent="1">
          <mxGeometry x="430" y="470" width="120" height="60" as="geometry" />
        </mxCell>
      </root>
    </mxGraphModel>
  </diagram>
</mxfile>
